<svg width="12" height="6" viewBox="0 0 12 6" xmlns="http://www.w3.org/2000/svg" xmlns:xlink="http://www.w3.org/1999/xlink"><title>dd-caret</title><defs><path id="a" d="M0 .02h12v6H0"/></defs><g transform="rotate(-180 6 3)" fill="none" fill-rule="evenodd"><mask id="b" fill="#fff"><use xlink:href="#a"/></mask><path d="M11.624 6.02a.387.387 0 0 1-.266-.103L6 .875.642 5.917a.393.393 0 0 1-.532 0 .34.34 0 0 1 0-.501L5.734.124a.393.393 0 0 1 .532 0l5.624 5.292a.34.34 0 0 1 0 .5.387.387 0 0 1-.266.104" fill="#7E7E7E" mask="url(#b)"/></g></svg>