<svg width="18" height="20" viewBox="0 0 18 20" xmlns="http://www.w3.org/2000/svg"><title>search icon</title><path d="M.797 8.3a7.071 7.071 0 0 0 1.952 4.918c.59.62 1.29 1.115 2.09 1.48.8.366 1.65.547 2.56.547s1.76-.18 2.57-.546c.81-.37 1.5-.86 2.09-1.49.58-.62 1.05-1.36 1.4-2.2.35-.84.53-1.75.53-2.73 0-.95-.18-1.85-.53-2.69-.35-.84-.82-1.58-1.41-2.21a6.561 6.561 0 0 0-2.09-1.5 6.12 6.12 0 0 0-2.57-.55c-.91 0-1.76.18-2.56.55-.81.36-1.51.86-2.1 1.49-.6.63-1.07 1.37-1.42 2.21a7.21 7.21 0 0 0-.52 2.7zM17.8 18.184c.134.14.2.32.2.54a.832.832 0 0 1-.2.562.764.764 0 0 1-.532.215.611.611 0 0 1-.513-.21l-4.615-5.08c-.64.69-1.88 1.33-2.57 1.56-.69.23-1.41.34-2.17.34-1.015 0-1.97-.2-2.868-.61-.9-.4-1.686-.96-2.364-1.66a7.657 7.657 0 0 1-1.597-2.47A8.28 8.28 0 0 1 0 8.3a7.904 7.904 0 0 1 2.173-5.502 7.624 7.624 0 0 1 2.357-1.68A6.807 6.807 0 0 1 7.404.5c1.016 0 1.976.205 2.88.617.906.408 1.69.97 2.358 1.68a8.037 8.037 0 0 1 1.58 2.48 7.97 7.97 0 0 1 .577 3.024c0 .8-.11 1.56-.32 2.29-.21.73-.82 2.01-1.47 2.66l4.78 4.94z" fill-rule="evenodd"/></svg>