<svg xmlns="http://www.w3.org/2000/svg" xmlns:xlink="http://www.w3.org/1999/xlink" width="24" height="15" viewBox="0 0 24 15"><defs><path id="a" d="M0 0h24v15H0z"/></defs><clipPath id="b"><use xlink:href="#a" overflow="visible"/></clipPath><g clip-path="url(#b)"><defs><path id="c" d="M0 1.5C0 .672.667 0 1.501 0h20.997C23.328 0 24 .666 24 1.5c0 .828-.667 1.5-1.502 1.5H1.501A1.497 1.497 0 0 1 0 1.5z"/></defs><clipPath id="d"><use xlink:href="#c" overflow="visible"/></clipPath><path clip-path="url(#d)" fill="#333" d="M-5-5h34V8H-5z"/></g><defs><path id="e" d="M0 0h24v15H0z"/></defs><clipPath id="f"><use xlink:href="#e" overflow="visible"/></clipPath><g clip-path="url(#f)"><defs><path id="g" d="M0 7.5C0 6.672.667 6 1.501 6h20.997C23.328 6 24 6.666 24 7.5c0 .828-.667 1.5-1.502 1.5H1.501A1.497 1.497 0 0 1 0 7.5z"/></defs><clipPath id="h"><use xlink:href="#g" overflow="visible"/></clipPath><path clip-path="url(#h)" fill="#333" d="M-5 1h34v13H-5z"/></g><defs><path id="i" d="M0 0h24v15H0z"/></defs><clipPath id="j"><use xlink:href="#i" overflow="visible"/></clipPath><g clip-path="url(#j)"><defs><path id="k" d="M0 13.5c0-.828.667-1.5 1.501-1.5h20.997c.83 0 1.502.666 1.502 1.5 0 .828-.667 1.5-1.502 1.5H1.501A1.497 1.497 0 0 1 0 13.5z"/></defs><clipPath id="l"><use xlink:href="#k" overflow="visible"/></clipPath><path clip-path="url(#l)" fill="#333" d="M-5 7h34v13H-5z"/></g></svg>